<svg fill="none" height="28" viewBox="0 0 28 28" width="28" xmlns="http://www.w3.org/2000/svg"><path clip-rule="evenodd" d="m13.0481.304501c.1818-.187774.4365-.30450098.7185-.30450098.0094-.00000173.0187.00012635.028.00038423.0977.00268422.1918.01937125.2806.04812515.1458.0471254.2829.1285866.3987.2443836l7.0928 7.092757c.3905.39052.3905 1.02369 0 1.41421-.3906.39052-1.0237.39052-1.4142 0l-5.3859-5.38583v14.60857c0 .5523-.4477 1-1 1s-1-.4477-1-1v-14.6082l-5.38544 5.38546c-.39052.39052-1.02369.39052-1.41421 0-.39053-.39052-.39053-1.02369 0-1.41421zm-12.0481 16.717699c.55228 0 1 .4477 1 1v5.6742c0 .4872.19355.9545.53807 1.299.34453.3445.8118.5381 1.29903.5381h19.8597c.4872 0 .9545-.1936 1.299-.5381.3446-.3445.5381-.8118.5381-1.299v-5.6742c0-.5523.4477-1 1-1s1 .4477 1 1v5.6742c0 1.0176-.4043 1.9936-1.1239 2.7132-.7195.7196-1.6955 1.1239-2.7132 1.1239h-19.8597c-1.01766 0-1.99364-.4043-2.71324-1.1239-.719595-.7196-1.12386-1.6956-1.12386-2.7132v-5.6742c0-.5523.447715-1 1-1z" fill="#fff" fill-rule="evenodd"/></svg>